<svg xmlns="http://www.w3.org/2000/svg" viewBox="0 0 512 512" width="512" height="512">
  <defs>
    <linearGradient id="bg" x1="0" y1="0" x2="1" y2="1">
      <stop offset="0" stop-color="#2A2540"/>
      <stop offset="1" stop-color="#5B57C7"/>
    </linearGradient>
    <radialGradient id="glow" cx="0.5" cy="0.42" r="0.55">
      <stop offset="0" stop-color="#FFFFFF" stop-opacity="0.16"/>
      <stop offset="1" stop-color="#FFFFFF" stop-opacity="0"/>
    </radialGradient>
  </defs>
  <rect x="0" y="0" width="512" height="512" rx="112.64" fill="url(#bg)"/>
  <rect x="0" y="0" width="512" height="512" rx="112.64" fill="url(#glow)"/>
  <g transform="translate(56.31999999999999,56.31999999999999) scale(9.984)">
    <mask id="zxmoon" maskUnits="userSpaceOnUse">
      <rect x="0" y="0" width="40" height="40" fill="black"/>
      <circle cx="19" cy="20.5" r="11.6" fill="white"/>
      <circle cx="26" cy="14.8" r="9.9" fill="black"/>
    </mask>
    <circle cx="20" cy="20" r="17.5" fill="none" stroke="#E6C574" stroke-width="2.6" opacity="0.95"/>
    <circle cx="19" cy="20.5" r="11.6" fill="#F1EEFF" mask="url(#zxmoon)"/>
    <path transform="translate(28.8,12.4) scale(0.64)"
      d="M0,-7 C0.6,-2.4 2.4,-0.6 7,0 C2.4,0.6 0.6,2.4 0,7 C-0.6,2.4 -2.4,0.6 -7,0 C-2.4,-0.6 -0.6,-2.4 0,-7 Z"
      fill="#E6C574"/>
  </g>
</svg>