<svg xmlns="http://www.w3.org/2000/svg" viewBox="0 0 512 512" width="512" height="512">
  <defs>
    <linearGradient id="bg" x1="0" y1="0" x2="1" y2="1">
      <stop offset="0" stop-color="#2A2540"/>
      <stop offset="1" stop-color="#5B57C7"/>
    </linearGradient>
    <radialGradient id="glow" cx="0.5" cy="0.42" r="0.55">
      <stop offset="0" stop-color="#FFFFFF" stop-opacity="0.16"/>
      <stop offset="1" stop-color="#FFFFFF" stop-opacity="0"/>
    </radialGradient>
  </defs>
  <rect x="0" y="0" width="512" height="512" rx="112.64" fill="url(#bg)"/>
  <rect x="0" y="0" width="512" height="512" rx="112.64" fill="url(#glow)"/>
  <g transform="translate(92.16,92.16) scale(8.192)">
    <circle cx="20" cy="20" r="18.5" stroke="#E6C574" stroke-width="1.3" opacity="0.85" fill="none"/>
    <circle cx="20" cy="20" r="13" stroke="#9E9CEE" stroke-width="1.2" opacity="0.7" fill="none"/>
    <path d="M27 13.5a10 10 0 1 0 3.2 9.3A8 8 0 0 1 27 13.5Z" fill="#DCD9FB"/>
    <path transform="translate(33.5,12.5) scale(0.42)"
      d="M0,-7 C0.6,-2.4 2.4,-0.6 7,0 C2.4,0.6 0.6,2.4 0,7 C-0.6,2.4 -2.4,0.6 -7,0 C-2.4,-0.6 -0.6,-2.4 0,-7 Z"
      fill="#E6C574"/>
    <circle cx="9.5" cy="27" r="1.6" fill="#E6C574"/>
  </g>
</svg>